<svg width="131" height="87" viewBox="0 0 131 87" fill="none" xmlns="http://www.w3.org/2000/svg">
<path d="M17.8686 3.27786C18.7657 3.27786 19.493 2.54408 19.493 1.63893C19.493 0.733773 18.7657 0 17.8686 0C16.9715 0 16.2442 0.733773 16.2442 1.63893C16.2442 2.54408 16.9715 3.27786 17.8686 3.27786Z" fill="#959595"/>
<path d="M17.8686 17.2478C18.7657 17.2478 19.493 16.514 19.493 15.6088C19.493 14.7037 18.7657 13.9699 17.8686 13.9699C16.9715 13.9699 16.2442 14.7037 16.2442 15.6088C16.2442 16.514 16.9715 17.2478 17.8686 17.2478Z" fill="#959595"/>
<path d="M17.8686 31.2957C18.7657 31.2957 19.493 30.5619 19.493 29.6568C19.493 28.7516 18.7657 28.0179 17.8686 28.0179C16.9715 28.0179 16.2442 28.7516 16.2442 29.6568C16.2442 30.5619 16.9715 31.2957 17.8686 31.2957Z" fill="#959595"/>
<path d="M17.8686 45.3437C18.7657 45.3437 19.493 44.6099 19.493 43.7048C19.493 42.7996 18.7657 42.0658 17.8686 42.0658C16.9715 42.0658 16.2442 42.7996 16.2442 43.7048C16.2442 44.6099 16.9715 45.3437 17.8686 45.3437Z" fill="#959595"/>
<path d="M17.8686 58.9234C18.7657 58.9234 19.493 58.1896 19.493 57.2844C19.493 56.3793 18.7657 55.6455 17.8686 55.6455C16.9715 55.6455 16.2442 56.3793 16.2442 57.2844C16.2442 58.1896 16.9715 58.9234 17.8686 58.9234Z" fill="#959595"/>
<path d="M17.8686 72.9713C18.7657 72.9713 19.493 72.2375 19.493 71.3324C19.493 70.4272 18.7657 69.6935 17.8686 69.6935C16.9715 69.6935 16.2442 70.4272 16.2442 71.3324C16.2442 72.2375 16.9715 72.9713 17.8686 72.9713Z" fill="#959595"/>
<path d="M17.8686 86.9412C18.7657 86.9412 19.493 86.2075 19.493 85.3023C19.493 84.3971 18.7657 83.6634 17.8686 83.6634C16.9715 83.6634 16.2442 84.3971 16.2442 85.3023C16.2442 86.2075 16.9715 86.9412 17.8686 86.9412Z" fill="#959595"/>
<path d="M1.62442 3.27786C2.52156 3.27786 3.24883 2.54408 3.24883 1.63893C3.24883 0.733773 2.52156 0 1.62442 0C0.727276 0 0 0.733773 0 1.63893C0 2.54408 0.727276 3.27786 1.62442 3.27786Z" fill="#959595"/>
<path d="M1.62442 17.2478C2.52156 17.2478 3.24883 16.514 3.24883 15.6088C3.24883 14.7037 2.52156 13.9699 1.62442 13.9699C0.727276 13.9699 0 14.7037 0 15.6088C0 16.514 0.727276 17.2478 1.62442 17.2478Z" fill="#959595"/>
<path d="M1.62442 31.2957C2.52156 31.2957 3.24883 30.5619 3.24883 29.6568C3.24883 28.7516 2.52156 28.0179 1.62442 28.0179C0.727276 28.0179 0 28.7516 0 29.6568C0 30.5619 0.727276 31.2957 1.62442 31.2957Z" fill="#959595"/>
<path d="M1.62442 45.3437C2.52156 45.3437 3.24883 44.6099 3.24883 43.7048C3.24883 42.7996 2.52156 42.0658 1.62442 42.0658C0.727276 42.0658 0 42.7996 0 43.7048C0 44.6099 0.727276 45.3437 1.62442 45.3437Z" fill="#959595"/>
<path d="M1.62442 58.9234C2.52156 58.9234 3.24883 58.1896 3.24883 57.2844C3.24883 56.3793 2.52156 55.6455 1.62442 55.6455C0.727276 55.6455 0 56.3793 0 57.2844C0 58.1896 0.727276 58.9234 1.62442 58.9234Z" fill="#959595"/>
<path d="M1.62442 72.9713C2.52156 72.9713 3.24883 72.2375 3.24883 71.3324C3.24883 70.4272 2.52156 69.6935 1.62442 69.6935C0.727276 69.6935 0 70.4272 0 71.3324C0 72.2375 0.727276 72.9713 1.62442 72.9713Z" fill="#959595"/>
<path d="M1.62442 86.9412C2.52156 86.9412 3.24883 86.2075 3.24883 85.3023C3.24883 84.3971 2.52156 83.6634 1.62442 83.6634C0.727276 83.6634 0 84.3971 0 85.3023C0 86.2075 0.727276 86.9412 1.62442 86.9412Z" fill="#959595"/>
<path d="M49.5834 3.27786C50.4806 3.27786 51.2078 2.54408 51.2078 1.63893C51.2078 0.733773 50.4806 0 49.5834 0C48.6863 0 47.959 0.733773 47.959 1.63893C47.959 2.54408 48.6863 3.27786 49.5834 3.27786Z" fill="#959595"/>
<path d="M49.5834 17.2478C50.4806 17.2478 51.2078 16.514 51.2078 15.6088C51.2078 14.7037 50.4806 13.9699 49.5834 13.9699C48.6863 13.9699 47.959 14.7037 47.959 15.6088C47.959 16.514 48.6863 17.2478 49.5834 17.2478Z" fill="#959595"/>
<path d="M49.5834 31.2957C50.4806 31.2957 51.2078 30.5619 51.2078 29.6568C51.2078 28.7516 50.4806 28.0179 49.5834 28.0179C48.6863 28.0179 47.959 28.7516 47.959 29.6568C47.959 30.5619 48.6863 31.2957 49.5834 31.2957Z" fill="#959595"/>
<path d="M49.5834 45.3437C50.4806 45.3437 51.2078 44.6099 51.2078 43.7048C51.2078 42.7996 50.4806 42.0658 49.5834 42.0658C48.6863 42.0658 47.959 42.7996 47.959 43.7048C47.959 44.6099 48.6863 45.3437 49.5834 45.3437Z" fill="#959595"/>
<path d="M49.5834 58.9234C50.4806 58.9234 51.2078 58.1896 51.2078 57.2844C51.2078 56.3793 50.4806 55.6455 49.5834 55.6455C48.6863 55.6455 47.959 56.3793 47.959 57.2844C47.959 58.1896 48.6863 58.9234 49.5834 58.9234Z" fill="#959595"/>
<path d="M49.5834 72.9713C50.4806 72.9713 51.2078 72.2375 51.2078 71.3324C51.2078 70.4272 50.4806 69.6935 49.5834 69.6935C48.6863 69.6935 47.959 70.4272 47.959 71.3324C47.959 72.2375 48.6863 72.9713 49.5834 72.9713Z" fill="#959595"/>
<path d="M49.5834 86.9412C50.4806 86.9412 51.2078 86.2075 51.2078 85.3023C51.2078 84.3971 50.4806 83.6634 49.5834 83.6634C48.6863 83.6634 47.959 84.3971 47.959 85.3023C47.959 86.2075 48.6863 86.9412 49.5834 86.9412Z" fill="#959595"/>
<path d="M33.3392 3.27786C34.2364 3.27786 34.9637 2.54408 34.9637 1.63893C34.9637 0.733773 34.2364 0 33.3392 0C32.4421 0 31.7148 0.733773 31.7148 1.63893C31.7148 2.54408 32.4421 3.27786 33.3392 3.27786Z" fill="#959595"/>
<path d="M33.3392 17.2478C34.2364 17.2478 34.9637 16.514 34.9637 15.6088C34.9637 14.7037 34.2364 13.9699 33.3392 13.9699C32.4421 13.9699 31.7148 14.7037 31.7148 15.6088C31.7148 16.514 32.4421 17.2478 33.3392 17.2478Z" fill="#959595"/>
<path d="M33.3392 31.2957C34.2364 31.2957 34.9637 30.5619 34.9637 29.6568C34.9637 28.7516 34.2364 28.0179 33.3392 28.0179C32.4421 28.0179 31.7148 28.7516 31.7148 29.6568C31.7148 30.5619 32.4421 31.2957 33.3392 31.2957Z" fill="#959595"/>
<path d="M33.3392 45.3437C34.2364 45.3437 34.9637 44.6099 34.9637 43.7048C34.9637 42.7996 34.2364 42.0658 33.3392 42.0658C32.4421 42.0658 31.7148 42.7996 31.7148 43.7048C31.7148 44.6099 32.4421 45.3437 33.3392 45.3437Z" fill="#959595"/>
<path d="M33.3392 58.9234C34.2364 58.9234 34.9637 58.1896 34.9637 57.2844C34.9637 56.3793 34.2364 55.6455 33.3392 55.6455C32.4421 55.6455 31.7148 56.3793 31.7148 57.2844C31.7148 58.1896 32.4421 58.9234 33.3392 58.9234Z" fill="#959595"/>
<path d="M33.3392 72.9713C34.2364 72.9713 34.9637 72.2375 34.9637 71.3324C34.9637 70.4272 34.2364 69.6935 33.3392 69.6935C32.4421 69.6935 31.7148 70.4272 31.7148 71.3324C31.7148 72.2375 32.4421 72.9713 33.3392 72.9713Z" fill="#959595"/>
<path d="M33.3392 86.9412C34.2364 86.9412 34.9637 86.2075 34.9637 85.3023C34.9637 84.3971 34.2364 83.6634 33.3392 83.6634C32.4421 83.6634 31.7148 84.3971 31.7148 85.3023C31.7148 86.2075 32.4421 86.9412 33.3392 86.9412Z" fill="#959595"/>
<path d="M81.3756 3.27786C82.2727 3.27786 83 2.54408 83 1.63893C83 0.733773 82.2727 0 81.3756 0C80.4784 0 79.7512 0.733773 79.7512 1.63893C79.7512 2.54408 80.4784 3.27786 81.3756 3.27786Z" fill="#959595"/>
<path d="M81.3756 17.2478C82.2727 17.2478 83 16.514 83 15.6088C83 14.7037 82.2727 13.9699 81.3756 13.9699C80.4784 13.9699 79.7512 14.7037 79.7512 15.6088C79.7512 16.514 80.4784 17.2478 81.3756 17.2478Z" fill="#959595"/>
<path d="M81.3756 31.2957C82.2727 31.2957 83 30.5619 83 29.6568C83 28.7516 82.2727 28.0179 81.3756 28.0179C80.4784 28.0179 79.7512 28.7516 79.7512 29.6568C79.7512 30.5619 80.4784 31.2957 81.3756 31.2957Z" fill="#959595"/>
<path d="M81.3756 45.3437C82.2727 45.3437 83 44.6099 83 43.7048C83 42.7996 82.2727 42.0658 81.3756 42.0658C80.4784 42.0658 79.7512 42.7996 79.7512 43.7048C79.7512 44.6099 80.4784 45.3437 81.3756 45.3437Z" fill="#959595"/>
<path d="M81.3756 58.9234C82.2727 58.9234 83 58.1896 83 57.2844C83 56.3793 82.2727 55.6455 81.3756 55.6455C80.4784 55.6455 79.7512 56.3793 79.7512 57.2844C79.7512 58.1896 80.4784 58.9234 81.3756 58.9234Z" fill="#959595"/>
<path d="M81.3756 72.9713C82.2727 72.9713 83 72.2375 83 71.3324C83 70.4272 82.2727 69.6935 81.3756 69.6935C80.4784 69.6935 79.7512 70.4272 79.7512 71.3324C79.7512 72.2375 80.4784 72.9713 81.3756 72.9713Z" fill="#959595"/>
<path d="M81.3756 86.9412C82.2727 86.9412 83 86.2075 83 85.3023C83 84.3971 82.2727 83.6634 81.3756 83.6634C80.4784 83.6634 79.7512 84.3971 79.7512 85.3023C79.7512 86.2075 80.4784 86.9412 81.3756 86.9412Z" fill="#959595"/>
<path d="M65.1314 3.27786C66.0285 3.27786 66.7558 2.54408 66.7558 1.63893C66.7558 0.733773 66.0285 0 65.1314 0C64.2343 0 63.507 0.733773 63.507 1.63893C63.507 2.54408 64.2343 3.27786 65.1314 3.27786Z" fill="#959595"/>
<path d="M65.1314 17.2478C66.0285 17.2478 66.7558 16.514 66.7558 15.6088C66.7558 14.7037 66.0285 13.9699 65.1314 13.9699C64.2343 13.9699 63.507 14.7037 63.507 15.6088C63.507 16.514 64.2343 17.2478 65.1314 17.2478Z" fill="#959595"/>
<path d="M65.1314 31.2957C66.0285 31.2957 66.7558 30.5619 66.7558 29.6568C66.7558 28.7516 66.0285 28.0179 65.1314 28.0179C64.2343 28.0179 63.507 28.7516 63.507 29.6568C63.507 30.5619 64.2343 31.2957 65.1314 31.2957Z" fill="#959595"/>
<path d="M65.1314 45.3437C66.0285 45.3437 66.7558 44.6099 66.7558 43.7048C66.7558 42.7996 66.0285 42.0658 65.1314 42.0658C64.2343 42.0658 63.507 42.7996 63.507 43.7048C63.507 44.6099 64.2343 45.3437 65.1314 45.3437Z" fill="#959595"/>
<path d="M65.1314 58.9234C66.0285 58.9234 66.7558 58.1896 66.7558 57.2844C66.7558 56.3793 66.0285 55.6455 65.1314 55.6455C64.2343 55.6455 63.507 56.3793 63.507 57.2844C63.507 58.1896 64.2343 58.9234 65.1314 58.9234Z" fill="#959595"/>
<path d="M65.1314 72.9713C66.0285 72.9713 66.7558 72.2375 66.7558 71.3324C66.7558 70.4272 66.0285 69.6935 65.1314 69.6935C64.2343 69.6935 63.507 70.4272 63.507 71.3324C63.507 72.2375 64.2343 72.9713 65.1314 72.9713Z" fill="#959595"/>
<path d="M65.1314 86.9412C66.0285 86.9412 66.7558 86.2075 66.7558 85.3023C66.7558 84.3971 66.0285 83.6634 65.1314 83.6634C64.2343 83.6634 63.507 84.3971 63.507 85.3023C63.507 86.2075 64.2343 86.9412 65.1314 86.9412Z" fill="#959595"/>
<path d="M113.869 3.27786C114.766 3.27786 115.493 2.54408 115.493 1.63893C115.493 0.733773 114.766 0 113.869 0C112.971 0 112.244 0.733773 112.244 1.63893C112.244 2.54408 112.971 3.27786 113.869 3.27786Z" fill="#959595"/>
<path d="M113.869 17.2478C114.766 17.2478 115.493 16.514 115.493 15.6088C115.493 14.7037 114.766 13.9699 113.869 13.9699C112.971 13.9699 112.244 14.7037 112.244 15.6088C112.244 16.514 112.971 17.2478 113.869 17.2478Z" fill="#959595"/>
<path d="M113.869 31.2957C114.766 31.2957 115.493 30.5619 115.493 29.6568C115.493 28.7516 114.766 28.0179 113.869 28.0179C112.971 28.0179 112.244 28.7516 112.244 29.6568C112.244 30.5619 112.971 31.2957 113.869 31.2957Z" fill="#959595"/>
<path d="M113.869 45.3437C114.766 45.3437 115.493 44.6099 115.493 43.7048C115.493 42.7996 114.766 42.0658 113.869 42.0658C112.971 42.0658 112.244 42.7996 112.244 43.7048C112.244 44.6099 112.971 45.3437 113.869 45.3437Z" fill="#959595"/>
<path d="M113.869 58.9234C114.766 58.9234 115.493 58.1896 115.493 57.2844C115.493 56.3793 114.766 55.6455 113.869 55.6455C112.971 55.6455 112.244 56.3793 112.244 57.2844C112.244 58.1896 112.971 58.9234 113.869 58.9234Z" fill="#959595"/>
<path d="M113.869 72.9713C114.766 72.9713 115.493 72.2375 115.493 71.3324C115.493 70.4272 114.766 69.6935 113.869 69.6935C112.971 69.6935 112.244 70.4272 112.244 71.3324C112.244 72.2375 112.971 72.9713 113.869 72.9713Z" fill="#959595"/>
<path d="M113.869 86.9412C114.766 86.9412 115.493 86.2075 115.493 85.3023C115.493 84.3972 114.766 83.6634 113.869 83.6634C112.971 83.6634 112.244 84.3972 112.244 85.3023C112.244 86.2075 112.971 86.9412 113.869 86.9412Z" fill="#959595"/>
<path d="M97.6244 3.27786C98.5216 3.27786 99.2488 2.54408 99.2488 1.63893C99.2488 0.733773 98.5216 0 97.6244 0C96.7273 0 96 0.733773 96 1.63893C96 2.54408 96.7273 3.27786 97.6244 3.27786Z" fill="#959595"/>
<path d="M97.6244 17.2478C98.5216 17.2478 99.2488 16.514 99.2488 15.6088C99.2488 14.7037 98.5216 13.9699 97.6244 13.9699C96.7273 13.9699 96 14.7037 96 15.6088C96 16.514 96.7273 17.2478 97.6244 17.2478Z" fill="#959595"/>
<path d="M97.6244 31.2957C98.5216 31.2957 99.2488 30.5619 99.2488 29.6568C99.2488 28.7516 98.5216 28.0179 97.6244 28.0179C96.7273 28.0179 96 28.7516 96 29.6568C96 30.5619 96.7273 31.2957 97.6244 31.2957Z" fill="#959595"/>
<path d="M97.6244 45.3437C98.5216 45.3437 99.2488 44.6099 99.2488 43.7048C99.2488 42.7996 98.5216 42.0658 97.6244 42.0658C96.7273 42.0658 96 42.7996 96 43.7048C96 44.6099 96.7273 45.3437 97.6244 45.3437Z" fill="#959595"/>
<path d="M97.6244 58.9234C98.5216 58.9234 99.2488 58.1896 99.2488 57.2844C99.2488 56.3793 98.5216 55.6455 97.6244 55.6455C96.7273 55.6455 96 56.3793 96 57.2844C96 58.1896 96.7273 58.9234 97.6244 58.9234Z" fill="#959595"/>
<path d="M97.6244 72.9713C98.5216 72.9713 99.2488 72.2375 99.2488 71.3324C99.2488 70.4272 98.5216 69.6935 97.6244 69.6935C96.7273 69.6935 96 70.4272 96 71.3324C96 72.2375 96.7273 72.9713 97.6244 72.9713Z" fill="#959595"/>
<path d="M97.6244 86.9412C98.5216 86.9412 99.2488 86.2075 99.2488 85.3023C99.2488 84.3972 98.5216 83.6634 97.6244 83.6634C96.7273 83.6634 96 84.3972 96 85.3023C96 86.2075 96.7273 86.9412 97.6244 86.9412Z" fill="#959595"/>
<path d="M129.339 3.27786C130.236 3.27786 130.964 2.54408 130.964 1.63893C130.964 0.733773 130.236 0 129.339 0C128.442 0 127.715 0.733773 127.715 1.63893C127.715 2.54408 128.442 3.27786 129.339 3.27786Z" fill="#959595"/>
<path d="M129.339 17.2478C130.236 17.2478 130.964 16.514 130.964 15.6088C130.964 14.7037 130.236 13.9699 129.339 13.9699C128.442 13.9699 127.715 14.7037 127.715 15.6088C127.715 16.514 128.442 17.2478 129.339 17.2478Z" fill="#959595"/>
<path d="M129.339 31.2957C130.236 31.2957 130.964 30.5619 130.964 29.6568C130.964 28.7516 130.236 28.0179 129.339 28.0179C128.442 28.0179 127.715 28.7516 127.715 29.6568C127.715 30.5619 128.442 31.2957 129.339 31.2957Z" fill="#959595"/>
<path d="M129.339 45.3437C130.236 45.3437 130.964 44.6099 130.964 43.7048C130.964 42.7996 130.236 42.0658 129.339 42.0658C128.442 42.0658 127.715 42.7996 127.715 43.7048C127.715 44.6099 128.442 45.3437 129.339 45.3437Z" fill="#959595"/>
<path d="M129.339 58.9234C130.236 58.9234 130.964 58.1896 130.964 57.2844C130.964 56.3793 130.236 55.6455 129.339 55.6455C128.442 55.6455 127.715 56.3793 127.715 57.2844C127.715 58.1896 128.442 58.9234 129.339 58.9234Z" fill="#959595"/>
<path d="M129.339 72.9713C130.236 72.9713 130.964 72.2375 130.964 71.3324C130.964 70.4272 130.236 69.6935 129.339 69.6935C128.442 69.6935 127.715 70.4272 127.715 71.3324C127.715 72.2375 128.442 72.9713 129.339 72.9713Z" fill="#959595"/>
<path d="M129.339 86.9412C130.236 86.9412 130.964 86.2075 130.964 85.3023C130.964 84.3972 130.236 83.6634 129.339 83.6634C128.442 83.6634 127.715 84.3972 127.715 85.3023C127.715 86.2075 128.442 86.9412 129.339 86.9412Z" fill="#959595"/>
</svg>
